<svg xmlns:rdf="http://www.w3.org/1999/02/22-rdf-syntax-ns#" xmlns="http://www.w3.org/2000/svg" xmlns:cc="http://creativecommons.org/ns#" xmlns:dc="http://purl.org/dc/elements/1.1/" height="100%" width="100%" version="1.1" viewBox="0 0 576.97 434.37986"  xmlns:xlink="http://www.w3.org/1999/xlink"><rect id="svgEditorBackground" x="0" y="0" width="576.969970703125" height="434.3798522949219" style="fill: none; stroke: none;"/>
  <defs>
    <radialGradient id="radialGradient3937" gradientUnits="userSpaceOnUse" cy="676.79" cx="508.65" gradientTransform="matrix(1,0,0,0.5704,-2,274.75)" r="86.402">
      <stop stop-color="#000000" offset="0"/>
      <stop stop-color="#000000" stop-opacity="0" offset="1"/>
    </radialGradient>
    <filter id="filter3967" color-interpolation-filters="sRGB">
      <feGaussianBlur stdDeviation="2.7953664"/>
    </filter>
  </defs>
  <g transform="translate(-101.23498,-272.06)">
    <path d="m420.75,672.71v-18.688l82.055-42.01,89.748,35.306v18.414l-93.012,43.848-78.792-36.871z" transform="matrix(3.115,0,0,3.115,-1188.5,-1524.8)" filter="url(#filter3967)" fill="url(#radialGradient3937)"/>
    <path style="color:#000000;" fill="#9e3a3a" d="M143.37,387.98,384.43,501.62,630.32,385.7,389.26,272.06z"/>
    <path style="color:#000000;" fill="#ce5c5c" d="M384.43,501.62v141.21000000000004l245.88999999999993,-115.91999999999996v-141.21000000000004Z"/>
    <path style="color:#000000;" fill="#771b1b" d="M143.37,387.98l241.06,113.63999999999999v141.21000000000004l-241.06,-113.63999999999999Z"/>
    <path fill-opacity="0.7" fill="#f2fdff" d="m422.47,315.78-38.514,5.6218-38.514,5.6218,16.367,5.3307-46.555,22.107,30.52,9.9405,46.555-22.107,16.367,5.3308,6.8691-15.929,6.9054-15.917z"/>
    <path fill-opacity="0.7" fill="#f2fdff" d="m269.31,421.78,6.8691-15.929,6.8691-15.929,16.367,5.3308,46.555-22.107,30.52,9.9405-46.555,22.107,16.367,5.3307-38.514,5.6218-38.477,5.6336z"/>
    <path fill-opacity="0.7" fill="#f2fdff" d="m507.05,352.03-38.514,5.6218-38.514,5.6218,16.367,5.3307-46.555,22.107,30.52,9.9405,46.555-22.107,16.367,5.3308,6.8691-15.929,6.9054-15.917z"/>
    <path fill-opacity="0.7" fill="#f2fdff" d="m353.9,458.03,6.8691-15.929,6.8691-15.929,16.367,5.3308,46.555-22.107,30.52,9.9405-46.555,22.107,16.367,5.3307-38.514,5.6218-38.477,5.6336z"/>
  </g>
</svg>