<?xml version="1.0" encoding="UTF-8" standalone="no"?>
<svg xmlns:rdf="http://www.w3.org/1999/02/22-rdf-syntax-ns#" xmlns="http://www.w3.org/2000/svg" height="100%" width="100%" version="1.1" xmlns:cc="http://creativecommons.org/ns#" xmlns:dc="http://purl.org/dc/elements/1.1/" viewBox="0 0 576.97 434.37986">
 <defs>
  <filter color-interpolation-filters="sRGB" id="filter3967">
   <feGaussianBlur stdDeviation="2.795366"/>
  </filter>
  <radialGradient r="86.402" gradientTransform="matrix(1,0,0,0.5704,-2,274.75)" cx="508.65" cy="676.79" gradientUnits="userSpaceOnUse" id="radialGradient3937">
   <stop offset="0" stop-color="#000000"/>
   <stop offset="1" stop-opacity="0" stop-color="#000000"/>
  </radialGradient>
 </defs>
 <g>
  <title>background</title>
  <rect fill="none" id="canvas_background" height="402" width="582" y="-1" x="-1"/>
 </g>
 <g>
  <title>Layer 1</title>
  <g id="svg_1">
   <path id="svg_2" fill="url(#radialGradient3937)" filter="url(#filter3967)" d="m20.901272,298.631652l0,-58.21312l255.601325,-130.86115l279.56502,109.97819l0,57.35961l-289.73238,136.58652l-245.43708,-114.853165l0.003115,0.003115z"/>
   <path id="svg_3" d="m42.135022,115.920002l241.06,113.64l245.89,-115.92l-241.06,-113.64l-245.89,115.92z" fill="#9b3940"/>
   <path id="svg_4" d="m282.195022,229.560002l0,141.21l245.89,-115.92l0,-141.21l-245.89,115.92z" fill="#cc5b5b"/>
   <path id="svg_5" d="m42.135022,115.920002l241.06,113.64l0,141.21l-241.06,-113.64l0,-141.21z" fill="#751a1a"/>
   <path id="svg_6" d="m321.235022,43.720002l-38.514,5.6218l-38.514,5.6218l16.367,5.3307l-46.555,22.107l30.52,9.9405l46.555,-22.107l16.367,5.3308l6.8691,-15.929l6.9054,-15.917l-0.0005,0.0004z" fill="#f2fdff" fill-opacity="0.7"/>
   <path id="svg_7" d="m168.075022,149.720002l6.8691,-15.929l6.8691,-15.929l16.367,5.3308l46.555,-22.107l30.52,9.9405l-46.555,22.107l16.367,5.3307l-38.514,5.6218l-38.477,5.6336l-0.0012,0.0006z" fill="#f2fdff" fill-opacity="0.7"/>
   <path id="svg_8" d="m405.815022,79.970002l-38.514,5.6218l-38.514,5.6218l16.367,5.3307l-46.555,22.107l30.52,9.9405l46.555,-22.107l16.367,5.3308l6.8691,-15.929l6.9054,-15.917l-0.0005,0.0004z" fill="#f2fdff" fill-opacity="0.7"/>
   <path id="svg_9" d="m252.665022,185.970002l6.8691,-15.929l6.8691,-15.929l16.367,5.3308l46.555,-22.107l30.52,9.9405l-46.555,22.107l16.367,5.3307l-38.514,5.6218l-38.477,5.6336l-0.0012,0.0006z" fill="#f2fdff" fill-opacity="0.7"/>
  </g>
 </g>
</svg>